<svg width="21" height="26" viewBox="0 0 21 26" fill="none" xmlns="http://www.w3.org/2000/svg">
<path d="M20.2348 17.6599C18.656 16.3255 17.7508 14.375 17.7508 12.3086V9.39746C17.7508 5.72305 15.0213 2.68141 11.4858 2.17186V1.04416C11.4858 0.46674 11.018 0 10.4416 0C9.86524 0 9.39746 0.46674 9.39746 1.04416V2.17186C5.86088 2.68141 3.13249 5.72305 3.13249 9.39746V12.3086C3.13249 14.375 2.2272 16.3255 0.639027 17.6683C0.232848 18.016 0 18.5213 0 19.056C0 20.0636 0.819667 20.8832 1.82728 20.8832H19.056C20.0636 20.8832 20.8832 20.0636 20.8832 19.056C20.8832 18.5213 20.6504 18.016 20.2348 17.6599Z" fill="#1D1D1D"/>
<path d="M10.4417 25.0602C12.3327 25.0602 13.9146 23.7122 14.278 21.9277H6.60547C6.96884 23.7122 8.55074 25.0602 10.4417 25.0602Z" fill="#1D1D1D"/>
</svg>
