<svg width="1080" height="1080" viewBox="0 0 1080 1080" fill="none" xmlns="http://www.w3.org/2000/svg">
<path d="M696.87 412.59L702.54 476.93C703.65 489.55 694.32 500.68 681.7 501.79L582.21 510.56C569.59 511.67 558.46 502.34 557.35 489.72L551.68 425.38C550.57 412.76 559.9 401.63 572.52 400.52L672.01 391.75C684.63 390.64 695.76 399.97 696.87 412.59Z" fill="#6477FF"/>
<path d="M624.05 446.12L599.06 505.68C594.16 517.36 580.71 522.86 569.03 517.96L476.93 479.32C465.25 474.42 459.75 460.97 464.65 449.29L489.64 389.73C494.54 378.05 507.99 372.55 519.67 377.45L611.77 416.09C623.46 421 628.95 434.44 624.05 446.12Z" fill="#29307C"/>
<path d="M533.47 467.79L487.79 513.47C478.83 522.43 464.31 522.43 455.35 513.47L384.72 442.84C375.76 433.88 375.76 419.36 384.72 410.4L430.4 364.72C439.36 355.76 453.88 355.76 462.84 364.72L533.47 435.35C542.43 444.31 542.43 458.84 533.47 467.79Z" fill="#6477FF"/>
<path fill-rule="evenodd" clip-rule="evenodd" d="M487.02 676.97C481.87 674.96 477.75 672.95 473.63 668.93C469.51 664.91 466.42 660.89 464.36 654.86C462.3 648.83 462.22 644.78 461.27 634.76L460.85 572.3H485.98V635.77C485.98 638.79 487.01 642.81 488.04 645.82C489.07 648.84 491.13 650.85 493.19 652.86C495.25 654.87 497.31 655.88 500.4 656.88C502.46 657.89 505.55 657.89 508.64 657.89C512.76 657.89 516.88 656.88 521 655.88C521.69 655.71 522.37 655.49 523.05 655.22C528.93 652.89 532.32 647.37 532.32 641.69V572.46H559.09V677.99H532.32V669.95C517.47 688.27 487.02 676.97 487.02 676.97Z" fill="#414042"/>
<path d="M299.15 626.68C299.15 621.88 298.44 617.54 297.03 613.68C295.62 609.82 293.65 606.51 291.12 603.76C288.59 601.01 285.6 598.9 282.13 597.44C278.66 595.98 274.82 595.25 270.59 595.25C267.88 595.25 264.8 595.81 261.33 596.92C257.86 598.03 254.96 599.52 252.61 601.39V650.04C258.12 655.07 264.3 657.59 271.11 657.59C275.11 657.59 278.84 656.83 282.31 655.31C285.77 653.79 288.74 651.65 291.21 648.9C293.68 646.15 295.62 642.87 297.03 639.07C298.44 635.25 299.15 631.13 299.15 626.68ZM324.97 626.5C324.97 633.64 323.76 640.43 321.35 646.87C318.95 653.31 315.57 658.96 311.23 663.82C306.89 668.68 301.72 672.55 295.74 675.41C289.75 678.28 283.18 679.71 276.03 679.71C271.56 679.71 267.4 679.1 263.53 677.87C259.65 676.64 256.02 674.68 252.62 671.98L252.79 721.16H227.33V575.4H252.79L252.97 580.67C255.89 578.33 259.37 576.46 263.41 575.05C267.45 573.64 271.69 572.94 276.14 572.94C282.35 572.94 288.38 574.32 294.23 577.07C300.08 579.82 305.29 583.6 309.85 588.39C314.42 593.19 318.08 598.85 320.83 605.34C323.58 611.83 324.97 618.89 324.97 626.5Z" fill="#414042"/>
<path d="M668.36 661.48C663.21 667.34 657.01 671.79 649.75 674.83C642.49 677.87 634.88 679.4 626.92 679.4C619.54 679.4 612.58 678.05 606.03 675.36C599.48 672.67 593.79 668.96 588.97 664.21C584.14 659.47 580.33 653.82 577.54 647.26C574.75 640.71 573.36 633.62 573.36 626.02C573.36 618.53 574.75 611.53 577.54 605.03C580.33 598.54 584.11 592.88 588.88 588.08C593.65 583.29 599.31 579.51 605.85 576.76C612.4 574.01 619.43 572.63 626.92 572.63C634.64 572.63 641.99 574.04 648.96 576.84C655.92 579.65 661.98 583.93 667.14 589.67L650.1 607.05C647.52 603.65 644.4 600.85 640.71 598.62C637.02 596.39 632.55 595.28 627.28 595.28C623.41 595.28 619.75 596.1 616.3 597.73C612.84 599.37 609.8 601.57 607.16 604.31C604.53 607.07 602.45 610.31 600.93 614.06C599.41 617.81 598.65 621.78 598.65 626C598.65 630.21 599.41 634.2 600.93 637.94C602.45 641.69 604.51 644.94 607.08 647.69C609.65 650.44 612.7 652.64 616.21 654.27C619.72 655.91 623.41 656.73 627.28 656.73C632.31 656.73 636.87 655.53 640.97 653.12C645.07 650.72 648.35 647.66 650.8 643.9L668.36 661.48Z" fill="#414042"/>
<path d="M787.84 679.46V571.77H813.13V679.51C813.13 679.51 787.88 679.41 787.84 679.46Z" fill="#414042"/>
<path d="M827.39 679.72V572.03H852.68V679.77C852.68 679.77 827.43 679.67 827.39 679.72Z" fill="#414042"/>
<path d="M773.59 680.09L771.69 618.49C771.69 612.8 770.74 606.17 768.85 600.48C766.95 595.74 764.11 591.95 760.32 588.16C756.53 584.37 752.74 582.47 748 580.58C744.21 578.69 738.52 577.74 733.79 577.74C729.05 577.74 724.31 578.69 719.58 579.64C716 581.43 711.59 583.25 707.92 585.84V537.94H707.27H682.63V680.08H708.22V605.22C711.06 603.33 713.91 602.38 717.7 601.43C721.49 600.48 725.28 599.53 729.07 599.53C730.97 599.53 733.81 599.53 735.7 600.48C738.54 601.43 740.44 602.38 742.33 604.27C744.22 606.17 745.17 609.01 746.12 610.9C747.07 613.74 748.02 617.53 748.02 620.38V680.08H773.59V680.09Z" fill="#414042"/>
<path fill-rule="evenodd" clip-rule="evenodd" d="M392.91 571.91C363.28 571.91 339.22 595.92 339.22 625.6C339.22 655.23 363.29 679.24 392.91 679.24C422.54 679.24 446.6 655.23 446.6 625.6C446.61 595.92 422.54 571.91 392.91 571.91ZM392.91 656.77C376.79 656.77 363.74 642.81 363.74 625.61C363.74 608.36 376.79 594.45 392.91 594.45C409.03 594.45 422.03 608.36 422.03 625.61C422.03 642.81 409.03 656.77 392.91 656.77Z" fill="#414042"/>
</svg>
