<svg width="17" height="19" viewBox="0 0 17 19" fill="none" xmlns="http://www.w3.org/2000/svg">
<path d="M6.77851 18.3802C3.14693 17.7312 0.427289 14.6549 0.278541 11.0248C0.0819736 6.27825 4.1026 2.51858 8.77118 2.78005L8.92889 0.667228C8.93765 0.549849 9.09146 0.497494 9.18666 0.577608L13.3706 4.06909C13.441 4.12912 13.4331 4.23549 13.3544 4.28551L8.69354 7.18385C8.58738 7.25046 8.44316 7.17443 8.45165 7.06072L8.60909 4.95157C5.32763 4.78312 2.49773 7.35081 2.47668 10.6451C2.45629 13.4786 4.6234 15.9243 7.47744 16.2963C10.5022 16.6909 13.2456 14.7293 13.9188 11.9359C14.0437 11.4171 14.5383 11.0669 15.0753 11.1029C15.7427 11.1477 16.2212 11.7659 16.0683 12.4081C15.1192 16.3885 11.1165 19.1541 6.77851 18.3802Z" fill="#555555"/>
</svg>
