<svg width="16" height="16" viewBox="0 0 16 16" fill="none" xmlns="http://www.w3.org/2000/svg">
<path d="M15.0123 13.8745L11.4279 10.2754C12.3495 9.21764 12.8545 7.88682 12.8545 6.50138C12.8545 3.26443 10.1267 0.630859 6.77392 0.630859C3.42115 0.630859 0.693359 3.26443 0.693359 6.50138C0.693359 9.73833 3.42115 12.3719 6.77392 12.3719C8.0326 12.3719 9.23205 12.0054 10.2576 11.3096L13.8691 14.936C14.0201 15.0874 14.2231 15.1709 14.4407 15.1709C14.6467 15.1709 14.842 15.0951 14.9903 14.9572C15.3055 14.6645 15.3155 14.179 15.0123 13.8745ZM6.77392 2.1623C9.25215 2.1623 11.2682 4.10876 11.2682 6.50138C11.2682 8.894 9.25215 10.8405 6.77392 10.8405C4.2957 10.8405 2.27959 8.894 2.27959 6.50138C2.27959 4.10876 4.2957 2.1623 6.77392 2.1623Z" fill="black"/>
</svg>
