<svg width="110" height="110" viewBox="0 0 110 110" fill="none" xmlns="http://www.w3.org/2000/svg">
<path d="M68.4062 12.9212L74.6182 18.3779C75.1037 18.8043 75.6893 19.101 76.3207 19.2403L84.4037 21.0212C85.6575 21.2974 86.689 22.1828 87.1479 23.3776L90.1082 31.0796C90.3394 31.6811 90.7204 32.2149 91.2149 32.6302L97.5487 37.9467C98.5309 38.7714 99.032 40.0323 98.8816 41.3015L97.9114 49.4837C97.8356 50.1229 97.9242 50.7711 98.1689 51.3674L101.302 59.0017C101.788 60.1858 101.644 61.5329 100.918 62.5858L96.2402 69.3747C95.8748 69.9052 95.6509 70.5193 95.5896 71.1599L94.8047 79.3625C94.6829 80.6352 93.9266 81.7599 92.792 82.3553L85.4779 86.195C84.9064 86.495 84.4212 86.9347 84.0677 87.4732L79.5447 94.3654C78.8432 95.4344 77.6477 96.0793 76.3641 96.0809L68.0892 96.0921C67.4429 96.0928 66.8077 96.2572 66.2431 96.5699L59.0178 100.573C57.8972 101.194 56.5368 101.211 55.3982 100.618L48.0584 96.7979C47.4851 96.4993 46.8451 96.3513 46.1991 96.3664L37.9268 96.5628C36.6436 96.5934 35.4299 95.9788 34.6971 94.9276L29.9739 88.1513C29.605 87.6222 29.107 87.1946 28.527 86.9091L21.1032 83.2541C19.9515 82.6872 19.1623 81.582 19.0036 80.313L17.9787 72.1334C17.8986 71.4944 17.657 70.8853 17.2762 70.3646L12.4011 63.6955C11.6449 62.6609 11.4613 61.318 11.9124 60.1223L14.821 52.4125C15.0482 51.8102 15.1179 51.1599 15.0234 50.5228L13.8141 42.3676C13.6265 41.1027 14.0904 39.83 15.0482 38.9811L21.2238 33.5075C21.7061 33.0799 22.0715 32.5374 22.2849 31.9299L25.0185 24.1566C25.4423 22.9507 26.4474 22.0397 27.6928 21.7322L35.7206 19.7489C36.3477 19.5942 36.9246 19.2829 37.3973 18.8446L43.4473 13.2341C44.3857 12.3637 45.7018 12.023 46.9491 12.3272L54.9902 14.2889C55.6183 14.442 56.275 14.4341 56.8986 14.2652L64.8789 12.1024C66.1171 11.7669 67.4426 12.0747 68.4062 12.9212Z" fill="#435FAA"/>
<path d="M40.9546 58.7849C44.35 62.1804 50.5972 68.4276 50.5972 68.4276L74.4369 44.5874" fill="#435FAA"/>
<path d="M40.9546 58.7849C44.35 62.1804 50.5972 68.4276 50.5972 68.4276L74.4369 44.5874" stroke="white" stroke-width="5.28798" stroke-miterlimit="10"/>
<path d="M54.9507 6.89946C54.9507 3.67882 54.9507 0 54.9507 0V6.89946Z" fill="#435FAA"/>
<path d="M54.9507 6.89946C54.9507 3.67882 54.9507 0 54.9507 0" stroke="#565682" stroke-width="2.84036" stroke-miterlimit="10"/>
<path d="M55.0493 109.958C55.0493 109.958 55.0493 106.279 55.0493 103.059V109.958Z" fill="#435FAA"/>
<path d="M55.0493 109.958C55.0493 109.958 55.0493 106.279 55.0493 103.059" stroke="#565682" stroke-width="2.84036" stroke-miterlimit="10"/>
<path d="M103.08 54.9297C106.3 54.9297 109.979 54.9297 109.979 54.9297H103.08Z" fill="#435FAA"/>
<path d="M103.08 54.9297C106.3 54.9297 109.979 54.9297 109.979 54.9297" stroke="#565682" stroke-width="2.84036" stroke-miterlimit="10"/>
<path d="M0.020874 55.0286C0.020874 55.0286 3.69969 55.0286 6.92034 55.0286H0.020874Z" fill="#435FAA"/>
<path d="M0.020874 55.0286C0.020874 55.0286 3.69969 55.0286 6.92034 55.0286" stroke="#565682" stroke-width="2.84036" stroke-miterlimit="10"/>
<path d="M89.0324 88.9417C91.3099 91.2191 93.9112 93.8204 93.9112 93.8204L89.0324 88.9417Z" fill="#435FAA"/>
<path d="M89.0324 88.9417C91.3099 91.2191 93.9112 93.8204 93.9112 93.8204" stroke="#565682" stroke-width="2.84036" stroke-miterlimit="10"/>
<path d="M16.0891 16.1379C16.0891 16.1379 18.6903 18.7393 20.9677 21.0167L16.0891 16.1379Z" fill="#435FAA"/>
<path d="M16.0891 16.1379C16.0891 16.1379 18.6903 18.7393 20.9677 21.0167" stroke="#565682" stroke-width="2.84036" stroke-miterlimit="10"/>
<path d="M88.9626 20.947C91.2401 18.6695 93.8414 16.0684 93.8414 16.0684L88.9626 20.947Z" fill="#435FAA"/>
<path d="M88.9626 20.947C91.2401 18.6695 93.8414 16.0684 93.8414 16.0684" stroke="#565682" stroke-width="2.84036" stroke-miterlimit="10"/>
<path d="M16.1588 93.89C16.1588 93.89 18.7599 91.2887 21.0374 89.0112L16.1588 93.89Z" fill="#435FAA"/>
<path d="M16.1588 93.89C16.1588 93.89 18.7599 91.2887 21.0374 89.0112" stroke="#565682" stroke-width="2.84036" stroke-miterlimit="10"/>
</svg>
